<mxfile host="Electron" modified="2024-07-03T20:02:08.971Z" agent="Mozilla/5.0 (Windows NT 10.0; Win64; x64) AppleWebKit/537.36 (KHTML, like Gecko) draw.io/24.5.3 Chrome/124.0.6367.207 Electron/30.0.6 Safari/537.36" etag="W-7eIDT_1W079qP_ZlCW" version="24.5.3" type="device">
  <diagram name="PÃ¡gina-1" id="dO4IyZAekjRmxOUQrjs9">
    <mxGraphModel dx="2074" dy="1248" grid="1" gridSize="10" guides="1" tooltips="1" connect="1" arrows="1" fold="1" page="1" pageScale="1" pageWidth="827" pageHeight="1169" math="0" shadow="0">
      <root>
        <mxCell id="0" />
        <mxCell id="1" parent="0" />
        <mxCell id="zrn1B7bBD7v_AQZPhtGh-1" value="" style="rounded=0;whiteSpace=wrap;html=1;" parent="1" vertex="1">
          <mxGeometry x="140" y="690" width="1760" height="500" as="geometry" />
        </mxCell>
        <mxCell id="zrn1B7bBD7v_AQZPhtGh-3" value="&lt;font style=&quot;font-size: 23px;&quot;&gt;ECS Backend&lt;/font&gt;" style="text;html=1;strokeColor=none;fillColor=none;align=center;verticalAlign=middle;whiteSpace=wrap;rounded=0;" parent="1" vertex="1">
          <mxGeometry x="140" y="690" width="200" height="60" as="geometry" />
        </mxCell>
        <mxCell id="-7hEezwogUJ3Agk4x-V2-3" value="" style="group" parent="1" vertex="1" connectable="0">
          <mxGeometry x="1280" y="770" width="530" height="380" as="geometry" />
        </mxCell>
        <mxCell id="zrn1B7bBD7v_AQZPhtGh-4" value="" style="rounded=0;whiteSpace=wrap;html=1;" parent="-7hEezwogUJ3Agk4x-V2-3" vertex="1">
          <mxGeometry width="530" height="380" as="geometry" />
        </mxCell>
        <mxCell id="zrn1B7bBD7v_AQZPhtGh-5" value="System Manager" style="text;html=1;strokeColor=none;fillColor=none;align=center;verticalAlign=middle;whiteSpace=wrap;rounded=0;fontSize=17;" parent="-7hEezwogUJ3Agk4x-V2-3" vertex="1">
          <mxGeometry x="17.936540180385148" width="218.92053302998292" height="35.625" as="geometry" />
        </mxCell>
        <mxCell id="iaHt7cQPZfeRavD3wexz-105" value="Map&amp;lt;Name, Bitset&amp;gt;" style="swimlane;whiteSpace=wrap;html=1;startSize=30;" vertex="1" parent="-7hEezwogUJ3Agk4x-V2-3">
          <mxGeometry x="50.5" y="255" width="200" height="90" as="geometry">
            <mxRectangle x="840" y="60" width="140" height="30" as="alternateBounds" />
          </mxGeometry>
        </mxCell>
        <mxCell id="iaHt7cQPZfeRavD3wexz-106" value="&lt;span style=&quot;font-size: 10px;&quot;&gt;Name: string&lt;/span&gt;" style="text;html=1;align=center;verticalAlign=middle;whiteSpace=wrap;rounded=0;" vertex="1" parent="iaHt7cQPZfeRavD3wexz-105">
          <mxGeometry y="30" width="70" height="30" as="geometry" />
        </mxCell>
        <mxCell id="iaHt7cQPZfeRavD3wexz-107" value="" style="endArrow=none;html=1;rounded=0;entryX=1;entryY=1;entryDx=0;entryDy=0;" edge="1" parent="iaHt7cQPZfeRavD3wexz-105" target="iaHt7cQPZfeRavD3wexz-108">
          <mxGeometry width="50" height="50" relative="1" as="geometry">
            <mxPoint y="60" as="sourcePoint" />
            <mxPoint x="195" y="60" as="targetPoint" />
          </mxGeometry>
        </mxCell>
        <mxCell id="iaHt7cQPZfeRavD3wexz-108" value="&lt;span style=&quot;font-size: 10px;&quot;&gt;signature:&amp;nbsp;Bitset&lt;/span&gt;" style="text;html=1;align=center;verticalAlign=middle;whiteSpace=wrap;rounded=0;" vertex="1" parent="iaHt7cQPZfeRavD3wexz-105">
          <mxGeometry x="120" y="30" width="80" height="30" as="geometry" />
        </mxCell>
        <mxCell id="iaHt7cQPZfeRavD3wexz-109" style="edgeStyle=orthogonalEdgeStyle;rounded=0;orthogonalLoop=1;jettySize=auto;html=1;" edge="1" parent="iaHt7cQPZfeRavD3wexz-105" source="iaHt7cQPZfeRavD3wexz-106" target="iaHt7cQPZfeRavD3wexz-108">
          <mxGeometry relative="1" as="geometry" />
        </mxCell>
        <mxCell id="iaHt7cQPZfeRavD3wexz-110" value="&lt;span style=&quot;color: rgb(0, 0, 0); font-family: Helvetica; font-style: normal; font-variant-ligatures: normal; font-variant-caps: normal; font-weight: 400; letter-spacing: normal; orphans: 2; text-align: center; text-indent: 0px; text-transform: none; widows: 2; word-spacing: 0px; -webkit-text-stroke-width: 0px; white-space: normal; background-color: rgb(251, 251, 251); text-decoration-thickness: initial; text-decoration-style: initial; text-decoration-color: initial; float: none; display: inline !important;&quot;&gt;&lt;font style=&quot;font-size: 17px;&quot;&gt;...&lt;/font&gt;&lt;/span&gt;" style="text;html=1;align=center;verticalAlign=middle;whiteSpace=wrap;rounded=0;labelBorderColor=none;strokeColor=none;" vertex="1" parent="iaHt7cQPZfeRavD3wexz-105">
          <mxGeometry y="60" width="200" height="30" as="geometry" />
        </mxCell>
        <mxCell id="iaHt7cQPZfeRavD3wexz-111" value="Map&amp;lt;ID, Name&amp;gt;" style="swimlane;whiteSpace=wrap;html=1;startSize=30;" vertex="1" parent="-7hEezwogUJ3Agk4x-V2-3">
          <mxGeometry x="50.5" y="35" width="200" height="90" as="geometry">
            <mxRectangle x="840" y="60" width="140" height="30" as="alternateBounds" />
          </mxGeometry>
        </mxCell>
        <mxCell id="iaHt7cQPZfeRavD3wexz-112" style="edgeStyle=orthogonalEdgeStyle;rounded=0;orthogonalLoop=1;jettySize=auto;html=1;" edge="1" parent="iaHt7cQPZfeRavD3wexz-111" source="iaHt7cQPZfeRavD3wexz-113" target="iaHt7cQPZfeRavD3wexz-115">
          <mxGeometry relative="1" as="geometry" />
        </mxCell>
        <mxCell id="iaHt7cQPZfeRavD3wexz-113" value="&lt;span style=&quot;color: rgb(0, 0, 0); font-family: Helvetica; font-size: 10px; font-style: normal; font-variant-ligatures: normal; font-variant-caps: normal; font-weight: 400; letter-spacing: normal; orphans: 2; text-align: center; text-indent: 0px; text-transform: none; widows: 2; word-spacing: 0px; -webkit-text-stroke-width: 0px; white-space: normal; background-color: rgb(251, 251, 251); text-decoration-thickness: initial; text-decoration-style: initial; text-decoration-color: initial; display: inline !important; float: none;&quot;&gt;ID: short&lt;/span&gt;" style="text;html=1;align=center;verticalAlign=middle;whiteSpace=wrap;rounded=0;" vertex="1" parent="iaHt7cQPZfeRavD3wexz-111">
          <mxGeometry y="30" width="60" height="30" as="geometry" />
        </mxCell>
        <mxCell id="iaHt7cQPZfeRavD3wexz-114" value="&lt;span style=&quot;font-family: Helvetica; font-style: normal; font-variant-ligatures: normal; font-variant-caps: normal; font-weight: 400; letter-spacing: normal; orphans: 2; text-align: center; text-indent: 0px; text-transform: none; widows: 2; word-spacing: 0px; -webkit-text-stroke-width: 0px; white-space: normal; background-color: rgb(251, 251, 251); text-decoration-thickness: initial; text-decoration-style: initial; text-decoration-color: initial; float: none; display: inline !important;&quot;&gt;&lt;font style=&quot;font-size: 17px;&quot;&gt;...&lt;/font&gt;&lt;/span&gt;" style="text;html=1;align=center;verticalAlign=middle;whiteSpace=wrap;rounded=0;labelBorderColor=none;strokeColor=none;fontColor=default;" vertex="1" parent="iaHt7cQPZfeRavD3wexz-111">
          <mxGeometry y="59.99999999999999" width="200" height="30" as="geometry" />
        </mxCell>
        <mxCell id="iaHt7cQPZfeRavD3wexz-115" value="&lt;span style=&quot;color: rgb(0, 0, 0); font-family: Helvetica; font-size: 10px; font-style: normal; font-variant-ligatures: normal; font-variant-caps: normal; font-weight: 400; letter-spacing: normal; orphans: 2; text-align: center; text-indent: 0px; text-transform: none; widows: 2; word-spacing: 0px; -webkit-text-stroke-width: 0px; white-space: normal; background-color: rgb(251, 251, 251); text-decoration-thickness: initial; text-decoration-style: initial; text-decoration-color: initial; display: inline !important; float: none;&quot;&gt;Name: string&lt;/span&gt;" style="text;html=1;align=center;verticalAlign=middle;whiteSpace=wrap;rounded=0;" vertex="1" parent="iaHt7cQPZfeRavD3wexz-111">
          <mxGeometry x="120" y="30" width="80" height="30" as="geometry" />
        </mxCell>
        <mxCell id="iaHt7cQPZfeRavD3wexz-116" value="" style="endArrow=none;html=1;rounded=0;fixDash=0;snapToPoint=0;" edge="1" parent="iaHt7cQPZfeRavD3wexz-111">
          <mxGeometry width="50" height="50" relative="1" as="geometry">
            <mxPoint y="60" as="sourcePoint" />
            <mxPoint x="200" y="60" as="targetPoint" />
            <Array as="points">
              <mxPoint x="100" y="60" />
            </Array>
          </mxGeometry>
        </mxCell>
        <mxCell id="iaHt7cQPZfeRavD3wexz-117" value="Map&amp;lt;Name, Set&amp;lt;ID&amp;gt;&amp;gt;" style="swimlane;whiteSpace=wrap;html=1;startSize=30;" vertex="1" parent="-7hEezwogUJ3Agk4x-V2-3">
          <mxGeometry x="50.5" y="145" width="200" height="90" as="geometry">
            <mxRectangle x="840" y="60" width="140" height="30" as="alternateBounds" />
          </mxGeometry>
        </mxCell>
        <mxCell id="iaHt7cQPZfeRavD3wexz-118" style="edgeStyle=orthogonalEdgeStyle;rounded=0;orthogonalLoop=1;jettySize=auto;html=1;" edge="1" parent="iaHt7cQPZfeRavD3wexz-117" source="iaHt7cQPZfeRavD3wexz-119" target="iaHt7cQPZfeRavD3wexz-121">
          <mxGeometry relative="1" as="geometry" />
        </mxCell>
        <mxCell id="iaHt7cQPZfeRavD3wexz-119" value="&lt;span style=&quot;font-size: 10px;&quot;&gt;Name: string&lt;/span&gt;" style="text;html=1;align=center;verticalAlign=middle;whiteSpace=wrap;rounded=0;" vertex="1" parent="iaHt7cQPZfeRavD3wexz-117">
          <mxGeometry y="30" width="70" height="30" as="geometry" />
        </mxCell>
        <mxCell id="iaHt7cQPZfeRavD3wexz-120" value="&lt;span style=&quot;font-family: Helvetica; font-style: normal; font-variant-ligatures: normal; font-variant-caps: normal; font-weight: 400; letter-spacing: normal; orphans: 2; text-align: center; text-indent: 0px; text-transform: none; widows: 2; word-spacing: 0px; -webkit-text-stroke-width: 0px; white-space: normal; background-color: rgb(251, 251, 251); text-decoration-thickness: initial; text-decoration-style: initial; text-decoration-color: initial; float: none; display: inline !important;&quot;&gt;&lt;font style=&quot;font-size: 17px;&quot;&gt;...&lt;/font&gt;&lt;/span&gt;" style="text;html=1;align=center;verticalAlign=middle;whiteSpace=wrap;rounded=0;labelBorderColor=none;strokeColor=none;fontColor=default;" vertex="1" parent="iaHt7cQPZfeRavD3wexz-117">
          <mxGeometry y="60" width="200" height="30" as="geometry" />
        </mxCell>
        <mxCell id="iaHt7cQPZfeRavD3wexz-121" value="&lt;span style=&quot;font-size: 10px;&quot;&gt;associatedEntities : Set&amp;lt;ID&amp;gt;&lt;/span&gt;" style="text;html=1;align=center;verticalAlign=middle;whiteSpace=wrap;rounded=0;" vertex="1" parent="iaHt7cQPZfeRavD3wexz-117">
          <mxGeometry x="100" y="30" width="100" height="30" as="geometry" />
        </mxCell>
        <mxCell id="iaHt7cQPZfeRavD3wexz-122" value="" style="endArrow=none;html=1;rounded=0;fixDash=0;snapToPoint=0;" edge="1" parent="iaHt7cQPZfeRavD3wexz-117">
          <mxGeometry width="50" height="50" relative="1" as="geometry">
            <mxPoint y="60" as="sourcePoint" />
            <mxPoint x="200" y="60" as="targetPoint" />
            <Array as="points">
              <mxPoint x="100" y="60" />
            </Array>
          </mxGeometry>
        </mxCell>
        <mxCell id="iaHt7cQPZfeRavD3wexz-123" value="Set&amp;lt;ID&amp;gt;" style="swimlane;whiteSpace=wrap;html=1;startSize=30;" vertex="1" parent="-7hEezwogUJ3Agk4x-V2-3">
          <mxGeometry x="289.5" y="145" width="100" height="90" as="geometry">
            <mxRectangle x="840" y="60" width="140" height="30" as="alternateBounds" />
          </mxGeometry>
        </mxCell>
        <mxCell id="iaHt7cQPZfeRavD3wexz-126" value="&lt;span style=&quot;font-family: Helvetica; font-style: normal; font-variant-ligatures: normal; font-variant-caps: normal; font-weight: 400; letter-spacing: normal; orphans: 2; text-align: center; text-indent: 0px; text-transform: none; widows: 2; word-spacing: 0px; -webkit-text-stroke-width: 0px; white-space: normal; background-color: rgb(251, 251, 251); text-decoration-thickness: initial; text-decoration-style: initial; text-decoration-color: initial; float: none; display: inline !important;&quot;&gt;&lt;font style=&quot;font-size: 17px;&quot;&gt;...&lt;/font&gt;&lt;/span&gt;" style="text;html=1;align=center;verticalAlign=middle;whiteSpace=wrap;rounded=0;labelBorderColor=none;strokeColor=none;fontColor=default;" vertex="1" parent="iaHt7cQPZfeRavD3wexz-123">
          <mxGeometry y="60" width="100" height="30" as="geometry" />
        </mxCell>
        <mxCell id="iaHt7cQPZfeRavD3wexz-128" value="" style="endArrow=none;html=1;rounded=0;fixDash=0;snapToPoint=0;entryX=1;entryY=1;entryDx=0;entryDy=0;" edge="1" parent="iaHt7cQPZfeRavD3wexz-123" target="iaHt7cQPZfeRavD3wexz-130">
          <mxGeometry width="50" height="50" relative="1" as="geometry">
            <mxPoint y="60" as="sourcePoint" />
            <mxPoint x="200" y="60" as="targetPoint" />
            <Array as="points">
              <mxPoint x="100" y="60" />
            </Array>
          </mxGeometry>
        </mxCell>
        <mxCell id="iaHt7cQPZfeRavD3wexz-130" value="&lt;span style=&quot;font-family: Helvetica; font-style: normal; font-variant-ligatures: normal; font-variant-caps: normal; font-weight: 400; letter-spacing: normal; orphans: 2; text-align: center; text-indent: 0px; text-transform: none; widows: 2; word-spacing: 0px; -webkit-text-stroke-width: 0px; white-space: normal; background-color: rgb(251, 251, 251); text-decoration-thickness: initial; text-decoration-style: initial; text-decoration-color: initial; float: none; display: inline !important;&quot;&gt;&lt;font style=&quot;font-size: 12px;&quot;&gt;ID&lt;/font&gt;&lt;/span&gt;" style="text;html=1;align=center;verticalAlign=middle;whiteSpace=wrap;rounded=0;labelBorderColor=none;strokeColor=none;fontColor=default;" vertex="1" parent="iaHt7cQPZfeRavD3wexz-123">
          <mxGeometry y="30" width="100" height="30" as="geometry" />
        </mxCell>
        <mxCell id="iaHt7cQPZfeRavD3wexz-132" style="edgeStyle=orthogonalEdgeStyle;rounded=0;orthogonalLoop=1;jettySize=auto;html=1;" edge="1" parent="-7hEezwogUJ3Agk4x-V2-3" source="iaHt7cQPZfeRavD3wexz-121" target="iaHt7cQPZfeRavD3wexz-123">
          <mxGeometry relative="1" as="geometry" />
        </mxCell>
        <mxCell id="iaHt7cQPZfeRavD3wexz-133" value="Set&amp;lt;ID&amp;gt;" style="swimlane;whiteSpace=wrap;html=1;startSize=30;" vertex="1" parent="-7hEezwogUJ3Agk4x-V2-3">
          <mxGeometry x="389.5" y="145" width="60" height="90" as="geometry">
            <mxRectangle x="840" y="60" width="140" height="30" as="alternateBounds" />
          </mxGeometry>
        </mxCell>
        <mxCell id="iaHt7cQPZfeRavD3wexz-134" value="&lt;span style=&quot;font-family: Helvetica; font-style: normal; font-variant-ligatures: normal; font-variant-caps: normal; font-weight: 400; letter-spacing: normal; orphans: 2; text-align: center; text-indent: 0px; text-transform: none; widows: 2; word-spacing: 0px; -webkit-text-stroke-width: 0px; white-space: normal; background-color: rgb(251, 251, 251); text-decoration-thickness: initial; text-decoration-style: initial; text-decoration-color: initial; float: none; display: inline !important;&quot;&gt;&lt;font style=&quot;font-size: 17px;&quot;&gt;...&lt;/font&gt;&lt;/span&gt;" style="text;html=1;align=center;verticalAlign=middle;whiteSpace=wrap;rounded=0;labelBorderColor=none;strokeColor=none;fontColor=default;" vertex="1" parent="iaHt7cQPZfeRavD3wexz-133">
          <mxGeometry y="60" width="60" height="30" as="geometry" />
        </mxCell>
        <mxCell id="iaHt7cQPZfeRavD3wexz-135" value="" style="endArrow=none;html=1;rounded=0;fixDash=0;snapToPoint=0;entryX=1;entryY=1;entryDx=0;entryDy=0;" edge="1" parent="iaHt7cQPZfeRavD3wexz-133" target="iaHt7cQPZfeRavD3wexz-136">
          <mxGeometry width="50" height="50" relative="1" as="geometry">
            <mxPoint y="60" as="sourcePoint" />
            <mxPoint x="200" y="60" as="targetPoint" />
            <Array as="points" />
          </mxGeometry>
        </mxCell>
        <mxCell id="iaHt7cQPZfeRavD3wexz-136" value="&lt;span style=&quot;font-family: Helvetica; font-style: normal; font-variant-ligatures: normal; font-variant-caps: normal; font-weight: 400; letter-spacing: normal; orphans: 2; text-align: center; text-indent: 0px; text-transform: none; widows: 2; word-spacing: 0px; -webkit-text-stroke-width: 0px; white-space: normal; background-color: rgb(251, 251, 251); text-decoration-thickness: initial; text-decoration-style: initial; text-decoration-color: initial; float: none; display: inline !important;&quot;&gt;&lt;font style=&quot;font-size: 12px;&quot;&gt;ID&lt;/font&gt;&lt;/span&gt;" style="text;html=1;align=center;verticalAlign=middle;whiteSpace=wrap;rounded=0;labelBorderColor=none;strokeColor=none;fontColor=default;" vertex="1" parent="iaHt7cQPZfeRavD3wexz-133">
          <mxGeometry y="30" width="60" height="30" as="geometry" />
        </mxCell>
        <mxCell id="iaHt7cQPZfeRavD3wexz-139" value="" style="swimlane;whiteSpace=wrap;html=1;startSize=30;" vertex="1" parent="-7hEezwogUJ3Agk4x-V2-3">
          <mxGeometry x="449.5" y="145" width="30" height="90" as="geometry">
            <mxRectangle x="840" y="60" width="140" height="30" as="alternateBounds" />
          </mxGeometry>
        </mxCell>
        <mxCell id="iaHt7cQPZfeRavD3wexz-141" value="" style="endArrow=none;html=1;rounded=0;fixDash=0;snapToPoint=0;" edge="1" parent="iaHt7cQPZfeRavD3wexz-139">
          <mxGeometry width="50" height="50" relative="1" as="geometry">
            <mxPoint y="60" as="sourcePoint" />
            <mxPoint x="30" y="60" as="targetPoint" />
            <Array as="points" />
          </mxGeometry>
        </mxCell>
        <mxCell id="iaHt7cQPZfeRavD3wexz-143" style="edgeStyle=orthogonalEdgeStyle;rounded=0;orthogonalLoop=1;jettySize=auto;html=1;entryX=0.5;entryY=1;entryDx=0;entryDy=0;" edge="1" parent="-7hEezwogUJ3Agk4x-V2-3" source="iaHt7cQPZfeRavD3wexz-120" target="iaHt7cQPZfeRavD3wexz-134">
          <mxGeometry relative="1" as="geometry">
            <Array as="points">
              <mxPoint x="150" y="250" />
              <mxPoint x="420" y="250" />
            </Array>
          </mxGeometry>
        </mxCell>
        <mxCell id="iaHt7cQPZfeRavD3wexz-144" style="edgeStyle=orthogonalEdgeStyle;rounded=0;orthogonalLoop=1;jettySize=auto;html=1;entryX=0.5;entryY=1;entryDx=0;entryDy=0;" edge="1" parent="-7hEezwogUJ3Agk4x-V2-3" source="iaHt7cQPZfeRavD3wexz-120" target="iaHt7cQPZfeRavD3wexz-139">
          <mxGeometry relative="1" as="geometry">
            <Array as="points">
              <mxPoint x="150" y="250" />
              <mxPoint x="464" y="250" />
            </Array>
          </mxGeometry>
        </mxCell>
        <mxCell id="-7hEezwogUJ3Agk4x-V2-257" value="" style="group" parent="1" vertex="1" connectable="0">
          <mxGeometry x="220" y="770" width="240" height="380" as="geometry" />
        </mxCell>
        <mxCell id="-7hEezwogUJ3Agk4x-V2-258" value="" style="rounded=0;whiteSpace=wrap;html=1;" parent="-7hEezwogUJ3Agk4x-V2-257" vertex="1">
          <mxGeometry width="240" height="379.99999999999994" as="geometry" />
        </mxCell>
        <mxCell id="-7hEezwogUJ3Agk4x-V2-259" value="Entity Manager" style="text;html=1;strokeColor=none;fillColor=none;align=center;verticalAlign=middle;whiteSpace=wrap;rounded=0;fontSize=16;" parent="-7hEezwogUJ3Agk4x-V2-257" vertex="1">
          <mxGeometry width="240" height="35.62756756756756" as="geometry" />
        </mxCell>
        <mxCell id="-7hEezwogUJ3Agk4x-V2-164" value="" style="rounded=0;whiteSpace=wrap;html=1;" parent="1" vertex="1">
          <mxGeometry x="520" y="770" width="240" height="380" as="geometry" />
        </mxCell>
        <mxCell id="-7hEezwogUJ3Agk4x-V2-165" value="Component Manager" style="text;html=1;strokeColor=none;fillColor=none;align=center;verticalAlign=middle;whiteSpace=wrap;rounded=0;fontSize=16;" parent="1" vertex="1">
          <mxGeometry x="520" y="770" width="240" height="30" as="geometry" />
        </mxCell>
        <mxCell id="iaHt7cQPZfeRavD3wexz-18" value="Map&amp;lt;Name, ICompArrPtr&amp;gt;" style="swimlane;whiteSpace=wrap;html=1;startSize=30;" vertex="1" parent="1">
          <mxGeometry x="540" y="1040" width="200" height="90" as="geometry">
            <mxRectangle x="840" y="60" width="140" height="30" as="alternateBounds" />
          </mxGeometry>
        </mxCell>
        <mxCell id="iaHt7cQPZfeRavD3wexz-20" value="&lt;span style=&quot;font-size: 10px;&quot;&gt;Name: string&lt;/span&gt;" style="text;html=1;align=center;verticalAlign=middle;whiteSpace=wrap;rounded=0;" vertex="1" parent="iaHt7cQPZfeRavD3wexz-18">
          <mxGeometry y="30" width="70" height="30" as="geometry" />
        </mxCell>
        <mxCell id="iaHt7cQPZfeRavD3wexz-23" value="" style="endArrow=none;html=1;rounded=0;entryX=1;entryY=1;entryDx=0;entryDy=0;" edge="1" parent="iaHt7cQPZfeRavD3wexz-18" target="iaHt7cQPZfeRavD3wexz-22">
          <mxGeometry width="50" height="50" relative="1" as="geometry">
            <mxPoint y="60" as="sourcePoint" />
            <mxPoint x="195" y="60" as="targetPoint" />
          </mxGeometry>
        </mxCell>
        <mxCell id="iaHt7cQPZfeRavD3wexz-22" value="&lt;span style=&quot;font-size: 10px;&quot;&gt;compArrPtr:&amp;nbsp;ptr&lt;/span&gt;" style="text;html=1;align=center;verticalAlign=middle;whiteSpace=wrap;rounded=0;" vertex="1" parent="iaHt7cQPZfeRavD3wexz-18">
          <mxGeometry x="120" y="30" width="80" height="30" as="geometry" />
        </mxCell>
        <mxCell id="iaHt7cQPZfeRavD3wexz-19" style="edgeStyle=orthogonalEdgeStyle;rounded=0;orthogonalLoop=1;jettySize=auto;html=1;" edge="1" parent="iaHt7cQPZfeRavD3wexz-18" source="iaHt7cQPZfeRavD3wexz-20" target="iaHt7cQPZfeRavD3wexz-22">
          <mxGeometry relative="1" as="geometry" />
        </mxCell>
        <mxCell id="iaHt7cQPZfeRavD3wexz-21" value="&lt;span style=&quot;color: rgb(0, 0, 0); font-family: Helvetica; font-style: normal; font-variant-ligatures: normal; font-variant-caps: normal; font-weight: 400; letter-spacing: normal; orphans: 2; text-align: center; text-indent: 0px; text-transform: none; widows: 2; word-spacing: 0px; -webkit-text-stroke-width: 0px; white-space: normal; background-color: rgb(251, 251, 251); text-decoration-thickness: initial; text-decoration-style: initial; text-decoration-color: initial; float: none; display: inline !important;&quot;&gt;&lt;font style=&quot;font-size: 17px;&quot;&gt;...&lt;/font&gt;&lt;/span&gt;" style="text;html=1;align=center;verticalAlign=middle;whiteSpace=wrap;rounded=0;labelBorderColor=none;strokeColor=none;" vertex="1" parent="iaHt7cQPZfeRavD3wexz-18">
          <mxGeometry y="60" width="200" height="30" as="geometry" />
        </mxCell>
        <mxCell id="iaHt7cQPZfeRavD3wexz-3" value="Map&amp;lt;ID, Name&amp;gt;" style="swimlane;whiteSpace=wrap;html=1;startSize=30;" vertex="1" parent="1">
          <mxGeometry x="540" y="820" width="200" height="90" as="geometry">
            <mxRectangle x="840" y="60" width="140" height="30" as="alternateBounds" />
          </mxGeometry>
        </mxCell>
        <mxCell id="iaHt7cQPZfeRavD3wexz-10" style="edgeStyle=orthogonalEdgeStyle;rounded=0;orthogonalLoop=1;jettySize=auto;html=1;" edge="1" parent="iaHt7cQPZfeRavD3wexz-3" source="iaHt7cQPZfeRavD3wexz-6" target="iaHt7cQPZfeRavD3wexz-9">
          <mxGeometry relative="1" as="geometry" />
        </mxCell>
        <mxCell id="iaHt7cQPZfeRavD3wexz-6" value="&lt;span style=&quot;color: rgb(0, 0, 0); font-family: Helvetica; font-size: 10px; font-style: normal; font-variant-ligatures: normal; font-variant-caps: normal; font-weight: 400; letter-spacing: normal; orphans: 2; text-align: center; text-indent: 0px; text-transform: none; widows: 2; word-spacing: 0px; -webkit-text-stroke-width: 0px; white-space: normal; background-color: rgb(251, 251, 251); text-decoration-thickness: initial; text-decoration-style: initial; text-decoration-color: initial; display: inline !important; float: none;&quot;&gt;ID: short&lt;/span&gt;" style="text;html=1;align=center;verticalAlign=middle;whiteSpace=wrap;rounded=0;" vertex="1" parent="iaHt7cQPZfeRavD3wexz-3">
          <mxGeometry y="30" width="60" height="30" as="geometry" />
        </mxCell>
        <mxCell id="iaHt7cQPZfeRavD3wexz-7" value="&lt;span style=&quot;font-family: Helvetica; font-style: normal; font-variant-ligatures: normal; font-variant-caps: normal; font-weight: 400; letter-spacing: normal; orphans: 2; text-align: center; text-indent: 0px; text-transform: none; widows: 2; word-spacing: 0px; -webkit-text-stroke-width: 0px; white-space: normal; background-color: rgb(251, 251, 251); text-decoration-thickness: initial; text-decoration-style: initial; text-decoration-color: initial; float: none; display: inline !important;&quot;&gt;&lt;font style=&quot;font-size: 17px;&quot;&gt;...&lt;/font&gt;&lt;/span&gt;" style="text;html=1;align=center;verticalAlign=middle;whiteSpace=wrap;rounded=0;labelBorderColor=none;strokeColor=none;fontColor=default;" vertex="1" parent="iaHt7cQPZfeRavD3wexz-3">
          <mxGeometry y="59.99999999999999" width="200" height="30" as="geometry" />
        </mxCell>
        <mxCell id="iaHt7cQPZfeRavD3wexz-9" value="&lt;span style=&quot;color: rgb(0, 0, 0); font-family: Helvetica; font-size: 10px; font-style: normal; font-variant-ligatures: normal; font-variant-caps: normal; font-weight: 400; letter-spacing: normal; orphans: 2; text-align: center; text-indent: 0px; text-transform: none; widows: 2; word-spacing: 0px; -webkit-text-stroke-width: 0px; white-space: normal; background-color: rgb(251, 251, 251); text-decoration-thickness: initial; text-decoration-style: initial; text-decoration-color: initial; display: inline !important; float: none;&quot;&gt;Name: string&lt;/span&gt;" style="text;html=1;align=center;verticalAlign=middle;whiteSpace=wrap;rounded=0;" vertex="1" parent="iaHt7cQPZfeRavD3wexz-3">
          <mxGeometry x="120" y="30" width="80" height="30" as="geometry" />
        </mxCell>
        <mxCell id="iaHt7cQPZfeRavD3wexz-11" value="" style="endArrow=none;html=1;rounded=0;fixDash=0;snapToPoint=0;" edge="1" parent="iaHt7cQPZfeRavD3wexz-3">
          <mxGeometry width="50" height="50" relative="1" as="geometry">
            <mxPoint y="60" as="sourcePoint" />
            <mxPoint x="200" y="60" as="targetPoint" />
            <Array as="points">
              <mxPoint x="100" y="60" />
            </Array>
          </mxGeometry>
        </mxCell>
        <mxCell id="iaHt7cQPZfeRavD3wexz-33" value="Map&amp;lt;Name, ID&amp;gt;" style="swimlane;whiteSpace=wrap;html=1;startSize=30;" vertex="1" parent="1">
          <mxGeometry x="540" y="930" width="200" height="90" as="geometry">
            <mxRectangle x="840" y="60" width="140" height="30" as="alternateBounds" />
          </mxGeometry>
        </mxCell>
        <mxCell id="iaHt7cQPZfeRavD3wexz-34" style="edgeStyle=orthogonalEdgeStyle;rounded=0;orthogonalLoop=1;jettySize=auto;html=1;" edge="1" parent="iaHt7cQPZfeRavD3wexz-33" source="iaHt7cQPZfeRavD3wexz-35" target="iaHt7cQPZfeRavD3wexz-37">
          <mxGeometry relative="1" as="geometry" />
        </mxCell>
        <mxCell id="iaHt7cQPZfeRavD3wexz-35" value="&lt;span style=&quot;font-size: 10px;&quot;&gt;Name: string&lt;/span&gt;" style="text;html=1;align=center;verticalAlign=middle;whiteSpace=wrap;rounded=0;" vertex="1" parent="iaHt7cQPZfeRavD3wexz-33">
          <mxGeometry y="30" width="60" height="30" as="geometry" />
        </mxCell>
        <mxCell id="iaHt7cQPZfeRavD3wexz-36" value="&lt;span style=&quot;font-family: Helvetica; font-style: normal; font-variant-ligatures: normal; font-variant-caps: normal; font-weight: 400; letter-spacing: normal; orphans: 2; text-align: center; text-indent: 0px; text-transform: none; widows: 2; word-spacing: 0px; -webkit-text-stroke-width: 0px; white-space: normal; background-color: rgb(251, 251, 251); text-decoration-thickness: initial; text-decoration-style: initial; text-decoration-color: initial; float: none; display: inline !important;&quot;&gt;&lt;font style=&quot;font-size: 17px;&quot;&gt;...&lt;/font&gt;&lt;/span&gt;" style="text;html=1;align=center;verticalAlign=middle;whiteSpace=wrap;rounded=0;labelBorderColor=none;strokeColor=none;fontColor=default;" vertex="1" parent="iaHt7cQPZfeRavD3wexz-33">
          <mxGeometry y="59.99999999999999" width="200" height="30" as="geometry" />
        </mxCell>
        <mxCell id="iaHt7cQPZfeRavD3wexz-37" value="&lt;span style=&quot;font-size: 10px;&quot;&gt;ID: short&lt;/span&gt;" style="text;html=1;align=center;verticalAlign=middle;whiteSpace=wrap;rounded=0;" vertex="1" parent="iaHt7cQPZfeRavD3wexz-33">
          <mxGeometry x="120" y="30" width="80" height="30" as="geometry" />
        </mxCell>
        <mxCell id="iaHt7cQPZfeRavD3wexz-38" value="" style="endArrow=none;html=1;rounded=0;fixDash=0;snapToPoint=0;" edge="1" parent="iaHt7cQPZfeRavD3wexz-33">
          <mxGeometry width="50" height="50" relative="1" as="geometry">
            <mxPoint y="60" as="sourcePoint" />
            <mxPoint x="200" y="60" as="targetPoint" />
            <Array as="points">
              <mxPoint x="100" y="60" />
            </Array>
          </mxGeometry>
        </mxCell>
        <mxCell id="iaHt7cQPZfeRavD3wexz-39" value="" style="rounded=0;whiteSpace=wrap;html=1;" vertex="1" parent="1">
          <mxGeometry x="840" y="770" width="240" height="380" as="geometry" />
        </mxCell>
        <mxCell id="iaHt7cQPZfeRavD3wexz-40" value="Component Array &amp;lt;Component&amp;gt;" style="text;html=1;strokeColor=none;fillColor=none;align=center;verticalAlign=middle;whiteSpace=wrap;rounded=0;fontSize=15;" vertex="1" parent="1">
          <mxGeometry x="840" y="770" width="240" height="30" as="geometry" />
        </mxCell>
        <mxCell id="iaHt7cQPZfeRavD3wexz-41" value="Array&amp;lt;Component, size&amp;gt;" style="swimlane;whiteSpace=wrap;html=1;startSize=30;" vertex="1" parent="1">
          <mxGeometry x="860" y="1040" width="200" height="90" as="geometry">
            <mxRectangle x="840" y="60" width="140" height="30" as="alternateBounds" />
          </mxGeometry>
        </mxCell>
        <mxCell id="iaHt7cQPZfeRavD3wexz-42" value="&lt;span style=&quot;font-size: 10px;&quot;&gt;component: Component&lt;/span&gt;" style="text;html=1;align=center;verticalAlign=middle;whiteSpace=wrap;rounded=0;" vertex="1" parent="iaHt7cQPZfeRavD3wexz-41">
          <mxGeometry y="30" width="200" height="30" as="geometry" />
        </mxCell>
        <mxCell id="iaHt7cQPZfeRavD3wexz-43" value="" style="endArrow=none;html=1;rounded=0;entryX=1;entryY=1;entryDx=0;entryDy=0;" edge="1" parent="iaHt7cQPZfeRavD3wexz-41">
          <mxGeometry width="50" height="50" relative="1" as="geometry">
            <mxPoint y="60" as="sourcePoint" />
            <mxPoint x="200" y="60" as="targetPoint" />
          </mxGeometry>
        </mxCell>
        <mxCell id="iaHt7cQPZfeRavD3wexz-46" value="&lt;span style=&quot;color: rgb(0, 0, 0); font-family: Helvetica; font-style: normal; font-variant-ligatures: normal; font-variant-caps: normal; font-weight: 400; letter-spacing: normal; orphans: 2; text-align: center; text-indent: 0px; text-transform: none; widows: 2; word-spacing: 0px; -webkit-text-stroke-width: 0px; white-space: normal; background-color: rgb(251, 251, 251); text-decoration-thickness: initial; text-decoration-style: initial; text-decoration-color: initial; float: none; display: inline !important;&quot;&gt;&lt;font style=&quot;font-size: 17px;&quot;&gt;...&lt;/font&gt;&lt;/span&gt;" style="text;html=1;align=center;verticalAlign=middle;whiteSpace=wrap;rounded=0;labelBorderColor=none;strokeColor=none;" vertex="1" parent="iaHt7cQPZfeRavD3wexz-41">
          <mxGeometry y="60" width="200" height="30" as="geometry" />
        </mxCell>
        <mxCell id="iaHt7cQPZfeRavD3wexz-47" value="Map&amp;lt;EntityID, Index&amp;gt;" style="swimlane;whiteSpace=wrap;html=1;startSize=30;" vertex="1" parent="1">
          <mxGeometry x="860" y="820" width="200" height="90" as="geometry">
            <mxRectangle x="840" y="60" width="140" height="30" as="alternateBounds" />
          </mxGeometry>
        </mxCell>
        <mxCell id="iaHt7cQPZfeRavD3wexz-48" style="edgeStyle=orthogonalEdgeStyle;rounded=0;orthogonalLoop=1;jettySize=auto;html=1;" edge="1" parent="iaHt7cQPZfeRavD3wexz-47" source="iaHt7cQPZfeRavD3wexz-49" target="iaHt7cQPZfeRavD3wexz-51">
          <mxGeometry relative="1" as="geometry" />
        </mxCell>
        <mxCell id="iaHt7cQPZfeRavD3wexz-49" value="&lt;span style=&quot;color: rgb(0, 0, 0); font-family: Helvetica; font-size: 10px; font-style: normal; font-variant-ligatures: normal; font-variant-caps: normal; font-weight: 400; letter-spacing: normal; orphans: 2; text-align: center; text-indent: 0px; text-transform: none; widows: 2; word-spacing: 0px; -webkit-text-stroke-width: 0px; white-space: normal; background-color: rgb(251, 251, 251); text-decoration-thickness: initial; text-decoration-style: initial; text-decoration-color: initial; display: inline !important; float: none;&quot;&gt;entityID: ushort&lt;/span&gt;" style="text;html=1;align=center;verticalAlign=middle;whiteSpace=wrap;rounded=0;" vertex="1" parent="iaHt7cQPZfeRavD3wexz-47">
          <mxGeometry y="30" width="80" height="30" as="geometry" />
        </mxCell>
        <mxCell id="iaHt7cQPZfeRavD3wexz-50" value="&lt;span style=&quot;font-family: Helvetica; font-style: normal; font-variant-ligatures: normal; font-variant-caps: normal; font-weight: 400; letter-spacing: normal; orphans: 2; text-align: center; text-indent: 0px; text-transform: none; widows: 2; word-spacing: 0px; -webkit-text-stroke-width: 0px; white-space: normal; background-color: rgb(251, 251, 251); text-decoration-thickness: initial; text-decoration-style: initial; text-decoration-color: initial; float: none; display: inline !important;&quot;&gt;&lt;font style=&quot;font-size: 17px;&quot;&gt;...&lt;/font&gt;&lt;/span&gt;" style="text;html=1;align=center;verticalAlign=middle;whiteSpace=wrap;rounded=0;labelBorderColor=none;strokeColor=none;fontColor=default;" vertex="1" parent="iaHt7cQPZfeRavD3wexz-47">
          <mxGeometry y="59.99999999999999" width="200" height="30" as="geometry" />
        </mxCell>
        <mxCell id="iaHt7cQPZfeRavD3wexz-51" value="&lt;span style=&quot;color: rgb(0, 0, 0); font-family: Helvetica; font-size: 10px; font-style: normal; font-variant-ligatures: normal; font-variant-caps: normal; font-weight: 400; letter-spacing: normal; orphans: 2; text-align: center; text-indent: 0px; text-transform: none; widows: 2; word-spacing: 0px; -webkit-text-stroke-width: 0px; white-space: normal; background-color: rgb(251, 251, 251); text-decoration-thickness: initial; text-decoration-style: initial; text-decoration-color: initial; display: inline !important; float: none;&quot;&gt;index: ulonglong&lt;/span&gt;" style="text;html=1;align=center;verticalAlign=middle;whiteSpace=wrap;rounded=0;" vertex="1" parent="iaHt7cQPZfeRavD3wexz-47">
          <mxGeometry x="110" y="30" width="90" height="30" as="geometry" />
        </mxCell>
        <mxCell id="iaHt7cQPZfeRavD3wexz-52" value="" style="endArrow=none;html=1;rounded=0;fixDash=0;snapToPoint=0;" edge="1" parent="iaHt7cQPZfeRavD3wexz-47">
          <mxGeometry width="50" height="50" relative="1" as="geometry">
            <mxPoint y="60" as="sourcePoint" />
            <mxPoint x="200" y="60" as="targetPoint" />
            <Array as="points">
              <mxPoint x="100" y="60" />
            </Array>
          </mxGeometry>
        </mxCell>
        <mxCell id="iaHt7cQPZfeRavD3wexz-53" value="Map&amp;lt;Index, EntityID&amp;gt;" style="swimlane;whiteSpace=wrap;html=1;startSize=30;" vertex="1" parent="1">
          <mxGeometry x="860" y="930" width="200" height="90" as="geometry">
            <mxRectangle x="840" y="60" width="140" height="30" as="alternateBounds" />
          </mxGeometry>
        </mxCell>
        <mxCell id="iaHt7cQPZfeRavD3wexz-54" style="edgeStyle=orthogonalEdgeStyle;rounded=0;orthogonalLoop=1;jettySize=auto;html=1;" edge="1" parent="iaHt7cQPZfeRavD3wexz-53" source="iaHt7cQPZfeRavD3wexz-55" target="iaHt7cQPZfeRavD3wexz-57">
          <mxGeometry relative="1" as="geometry" />
        </mxCell>
        <mxCell id="iaHt7cQPZfeRavD3wexz-55" value="&lt;span style=&quot;font-size: 10px;&quot;&gt;index: ulonglong&lt;/span&gt;" style="text;html=1;align=center;verticalAlign=middle;whiteSpace=wrap;rounded=0;" vertex="1" parent="iaHt7cQPZfeRavD3wexz-53">
          <mxGeometry y="30" width="90" height="30" as="geometry" />
        </mxCell>
        <mxCell id="iaHt7cQPZfeRavD3wexz-56" value="&lt;span style=&quot;font-family: Helvetica; font-style: normal; font-variant-ligatures: normal; font-variant-caps: normal; font-weight: 400; letter-spacing: normal; orphans: 2; text-align: center; text-indent: 0px; text-transform: none; widows: 2; word-spacing: 0px; -webkit-text-stroke-width: 0px; white-space: normal; background-color: rgb(251, 251, 251); text-decoration-thickness: initial; text-decoration-style: initial; text-decoration-color: initial; float: none; display: inline !important;&quot;&gt;&lt;font style=&quot;font-size: 17px;&quot;&gt;...&lt;/font&gt;&lt;/span&gt;" style="text;html=1;align=center;verticalAlign=middle;whiteSpace=wrap;rounded=0;labelBorderColor=none;strokeColor=none;fontColor=default;" vertex="1" parent="iaHt7cQPZfeRavD3wexz-53">
          <mxGeometry y="59.99999999999999" width="200" height="30" as="geometry" />
        </mxCell>
        <mxCell id="iaHt7cQPZfeRavD3wexz-57" value="&lt;span style=&quot;font-size: 10px;&quot;&gt;entityID: ushort&lt;/span&gt;" style="text;html=1;align=center;verticalAlign=middle;whiteSpace=wrap;rounded=0;" vertex="1" parent="iaHt7cQPZfeRavD3wexz-53">
          <mxGeometry x="120" y="30" width="80" height="30" as="geometry" />
        </mxCell>
        <mxCell id="iaHt7cQPZfeRavD3wexz-58" value="" style="endArrow=none;html=1;rounded=0;fixDash=0;snapToPoint=0;" edge="1" parent="iaHt7cQPZfeRavD3wexz-53">
          <mxGeometry width="50" height="50" relative="1" as="geometry">
            <mxPoint y="60" as="sourcePoint" />
            <mxPoint x="200" y="60" as="targetPoint" />
            <Array as="points">
              <mxPoint x="100" y="60" />
            </Array>
          </mxGeometry>
        </mxCell>
        <mxCell id="iaHt7cQPZfeRavD3wexz-59" style="edgeStyle=orthogonalEdgeStyle;rounded=0;orthogonalLoop=1;jettySize=auto;html=1;" edge="1" parent="1" source="iaHt7cQPZfeRavD3wexz-22" target="iaHt7cQPZfeRavD3wexz-39">
          <mxGeometry relative="1" as="geometry">
            <Array as="points">
              <mxPoint x="790" y="1085" />
              <mxPoint x="790" y="750" />
              <mxPoint x="960" y="750" />
            </Array>
          </mxGeometry>
        </mxCell>
        <mxCell id="iaHt7cQPZfeRavD3wexz-60" value="" style="rounded=0;whiteSpace=wrap;html=1;" vertex="1" parent="1">
          <mxGeometry x="1080" y="770" width="70" height="380" as="geometry" />
        </mxCell>
        <mxCell id="iaHt7cQPZfeRavD3wexz-64" style="edgeStyle=orthogonalEdgeStyle;rounded=0;orthogonalLoop=1;jettySize=auto;html=1;entryX=0.5;entryY=0;entryDx=0;entryDy=0;" edge="1" parent="1" source="iaHt7cQPZfeRavD3wexz-22" target="iaHt7cQPZfeRavD3wexz-60">
          <mxGeometry relative="1" as="geometry">
            <Array as="points">
              <mxPoint x="790" y="1085" />
              <mxPoint x="790" y="750" />
              <mxPoint x="1115" y="750" />
            </Array>
          </mxGeometry>
        </mxCell>
        <mxCell id="iaHt7cQPZfeRavD3wexz-65" value="&lt;font style=&quot;font-size: 18px;&quot;&gt;o&lt;/font&gt;&lt;div style=&quot;font-size: 18px;&quot;&gt;&lt;font style=&quot;font-size: 18px;&quot;&gt;o&lt;/font&gt;&lt;/div&gt;&lt;div style=&quot;font-size: 18px;&quot;&gt;&lt;font style=&quot;font-size: 18px;&quot;&gt;o&lt;/font&gt;&lt;/div&gt;" style="rounded=0;whiteSpace=wrap;html=1;" vertex="1" parent="1">
          <mxGeometry x="1150" y="770" width="70" height="380" as="geometry" />
        </mxCell>
        <mxCell id="iaHt7cQPZfeRavD3wexz-66" style="edgeStyle=orthogonalEdgeStyle;rounded=0;orthogonalLoop=1;jettySize=auto;html=1;entryX=0.5;entryY=0;entryDx=0;entryDy=0;" edge="1" parent="1" source="iaHt7cQPZfeRavD3wexz-22" target="iaHt7cQPZfeRavD3wexz-65">
          <mxGeometry relative="1" as="geometry">
            <Array as="points">
              <mxPoint x="790" y="1085" />
              <mxPoint x="790" y="750" />
              <mxPoint x="1185" y="750" />
            </Array>
          </mxGeometry>
        </mxCell>
        <mxCell id="iaHt7cQPZfeRavD3wexz-67" style="edgeStyle=orthogonalEdgeStyle;rounded=0;orthogonalLoop=1;jettySize=auto;html=1;entryX=0.75;entryY=0;entryDx=0;entryDy=0;" edge="1" parent="1" source="iaHt7cQPZfeRavD3wexz-22" target="iaHt7cQPZfeRavD3wexz-65">
          <mxGeometry relative="1" as="geometry">
            <Array as="points">
              <mxPoint x="790" y="1085" />
              <mxPoint x="790" y="750" />
              <mxPoint x="1202" y="750" />
            </Array>
          </mxGeometry>
        </mxCell>
        <mxCell id="iaHt7cQPZfeRavD3wexz-68" style="edgeStyle=orthogonalEdgeStyle;rounded=0;orthogonalLoop=1;jettySize=auto;html=1;entryX=0.25;entryY=0;entryDx=0;entryDy=0;" edge="1" parent="1" source="iaHt7cQPZfeRavD3wexz-22" target="iaHt7cQPZfeRavD3wexz-65">
          <mxGeometry relative="1" as="geometry">
            <Array as="points">
              <mxPoint x="790" y="1085" />
              <mxPoint x="790" y="750" />
              <mxPoint x="1168" y="750" />
            </Array>
          </mxGeometry>
        </mxCell>
        <mxCell id="iaHt7cQPZfeRavD3wexz-69" value="" style="swimlane;whiteSpace=wrap;html=1;startSize=30;" vertex="1" parent="1">
          <mxGeometry x="1090" y="820" width="50" height="90" as="geometry">
            <mxRectangle x="840" y="60" width="140" height="30" as="alternateBounds" />
          </mxGeometry>
        </mxCell>
        <mxCell id="iaHt7cQPZfeRavD3wexz-74" value="" style="endArrow=none;html=1;rounded=0;fixDash=0;snapToPoint=0;" edge="1" parent="iaHt7cQPZfeRavD3wexz-69">
          <mxGeometry width="50" height="50" relative="1" as="geometry">
            <mxPoint y="60" as="sourcePoint" />
            <mxPoint x="50" y="60" as="targetPoint" />
            <Array as="points" />
          </mxGeometry>
        </mxCell>
        <mxCell id="iaHt7cQPZfeRavD3wexz-75" value="" style="swimlane;whiteSpace=wrap;html=1;startSize=30;" vertex="1" parent="1">
          <mxGeometry x="1090" y="930" width="50" height="90" as="geometry">
            <mxRectangle x="840" y="60" width="140" height="30" as="alternateBounds" />
          </mxGeometry>
        </mxCell>
        <mxCell id="iaHt7cQPZfeRavD3wexz-76" value="" style="endArrow=none;html=1;rounded=0;fixDash=0;snapToPoint=0;" edge="1" parent="iaHt7cQPZfeRavD3wexz-75">
          <mxGeometry width="50" height="50" relative="1" as="geometry">
            <mxPoint y="60" as="sourcePoint" />
            <mxPoint x="50" y="60" as="targetPoint" />
            <Array as="points" />
          </mxGeometry>
        </mxCell>
        <mxCell id="iaHt7cQPZfeRavD3wexz-77" value="" style="swimlane;whiteSpace=wrap;html=1;startSize=30;" vertex="1" parent="1">
          <mxGeometry x="1090" y="1040" width="50" height="90" as="geometry">
            <mxRectangle x="840" y="60" width="140" height="30" as="alternateBounds" />
          </mxGeometry>
        </mxCell>
        <mxCell id="iaHt7cQPZfeRavD3wexz-78" value="" style="endArrow=none;html=1;rounded=0;fixDash=0;snapToPoint=0;" edge="1" parent="iaHt7cQPZfeRavD3wexz-77">
          <mxGeometry width="50" height="50" relative="1" as="geometry">
            <mxPoint y="60" as="sourcePoint" />
            <mxPoint x="50" y="60" as="targetPoint" />
            <Array as="points" />
          </mxGeometry>
        </mxCell>
        <mxCell id="iaHt7cQPZfeRavD3wexz-79" value="C. A. &amp;lt;C.&amp;gt;" style="text;html=1;strokeColor=none;fillColor=none;align=center;verticalAlign=middle;whiteSpace=wrap;rounded=0;" vertex="1" parent="1">
          <mxGeometry x="1080" y="770" width="70" height="30" as="geometry" />
        </mxCell>
        <mxCell id="iaHt7cQPZfeRavD3wexz-80" value="Map&amp;lt;EntityID, Name&amp;gt;" style="swimlane;whiteSpace=wrap;html=1;startSize=30;" vertex="1" parent="1">
          <mxGeometry x="240" y="820" width="200" height="90" as="geometry">
            <mxRectangle x="840" y="60" width="140" height="30" as="alternateBounds" />
          </mxGeometry>
        </mxCell>
        <mxCell id="iaHt7cQPZfeRavD3wexz-81" style="edgeStyle=orthogonalEdgeStyle;rounded=0;orthogonalLoop=1;jettySize=auto;html=1;" edge="1" parent="iaHt7cQPZfeRavD3wexz-80" source="iaHt7cQPZfeRavD3wexz-82" target="iaHt7cQPZfeRavD3wexz-84">
          <mxGeometry relative="1" as="geometry" />
        </mxCell>
        <mxCell id="iaHt7cQPZfeRavD3wexz-82" value="&lt;span style=&quot;color: rgb(0, 0, 0); font-family: Helvetica; font-size: 10px; font-style: normal; font-variant-ligatures: normal; font-variant-caps: normal; font-weight: 400; letter-spacing: normal; orphans: 2; text-align: center; text-indent: 0px; text-transform: none; widows: 2; word-spacing: 0px; -webkit-text-stroke-width: 0px; white-space: normal; background-color: rgb(251, 251, 251); text-decoration-thickness: initial; text-decoration-style: initial; text-decoration-color: initial; display: inline !important; float: none;&quot;&gt;ID: short&lt;/span&gt;" style="text;html=1;align=center;verticalAlign=middle;whiteSpace=wrap;rounded=0;" vertex="1" parent="iaHt7cQPZfeRavD3wexz-80">
          <mxGeometry y="30" width="60" height="30" as="geometry" />
        </mxCell>
        <mxCell id="iaHt7cQPZfeRavD3wexz-83" value="&lt;span style=&quot;font-family: Helvetica; font-style: normal; font-variant-ligatures: normal; font-variant-caps: normal; font-weight: 400; letter-spacing: normal; orphans: 2; text-align: center; text-indent: 0px; text-transform: none; widows: 2; word-spacing: 0px; -webkit-text-stroke-width: 0px; white-space: normal; background-color: rgb(251, 251, 251); text-decoration-thickness: initial; text-decoration-style: initial; text-decoration-color: initial; float: none; display: inline !important;&quot;&gt;&lt;font style=&quot;font-size: 17px;&quot;&gt;...&lt;/font&gt;&lt;/span&gt;" style="text;html=1;align=center;verticalAlign=middle;whiteSpace=wrap;rounded=0;labelBorderColor=none;strokeColor=none;fontColor=default;" vertex="1" parent="iaHt7cQPZfeRavD3wexz-80">
          <mxGeometry y="59.99999999999999" width="200" height="30" as="geometry" />
        </mxCell>
        <mxCell id="iaHt7cQPZfeRavD3wexz-84" value="&lt;span style=&quot;color: rgb(0, 0, 0); font-family: Helvetica; font-size: 10px; font-style: normal; font-variant-ligatures: normal; font-variant-caps: normal; font-weight: 400; letter-spacing: normal; orphans: 2; text-align: center; text-indent: 0px; text-transform: none; widows: 2; word-spacing: 0px; -webkit-text-stroke-width: 0px; white-space: normal; background-color: rgb(251, 251, 251); text-decoration-thickness: initial; text-decoration-style: initial; text-decoration-color: initial; display: inline !important; float: none;&quot;&gt;Name: string&lt;/span&gt;" style="text;html=1;align=center;verticalAlign=middle;whiteSpace=wrap;rounded=0;" vertex="1" parent="iaHt7cQPZfeRavD3wexz-80">
          <mxGeometry x="120" y="30" width="80" height="30" as="geometry" />
        </mxCell>
        <mxCell id="iaHt7cQPZfeRavD3wexz-85" value="" style="endArrow=none;html=1;rounded=0;fixDash=0;snapToPoint=0;" edge="1" parent="iaHt7cQPZfeRavD3wexz-80">
          <mxGeometry width="50" height="50" relative="1" as="geometry">
            <mxPoint y="60" as="sourcePoint" />
            <mxPoint x="200" y="60" as="targetPoint" />
            <Array as="points">
              <mxPoint x="100" y="60" />
            </Array>
          </mxGeometry>
        </mxCell>
        <mxCell id="iaHt7cQPZfeRavD3wexz-86" value="Map&amp;lt;Name, EntityID&amp;gt;" style="swimlane;whiteSpace=wrap;html=1;startSize=30;" vertex="1" parent="1">
          <mxGeometry x="240" y="930" width="200" height="90" as="geometry">
            <mxRectangle x="840" y="60" width="140" height="30" as="alternateBounds" />
          </mxGeometry>
        </mxCell>
        <mxCell id="iaHt7cQPZfeRavD3wexz-87" style="edgeStyle=orthogonalEdgeStyle;rounded=0;orthogonalLoop=1;jettySize=auto;html=1;" edge="1" parent="iaHt7cQPZfeRavD3wexz-86" source="iaHt7cQPZfeRavD3wexz-88" target="iaHt7cQPZfeRavD3wexz-90">
          <mxGeometry relative="1" as="geometry" />
        </mxCell>
        <mxCell id="iaHt7cQPZfeRavD3wexz-88" value="&lt;span style=&quot;font-size: 10px;&quot;&gt;Name: string&lt;/span&gt;" style="text;html=1;align=center;verticalAlign=middle;whiteSpace=wrap;rounded=0;" vertex="1" parent="iaHt7cQPZfeRavD3wexz-86">
          <mxGeometry y="30" width="60" height="30" as="geometry" />
        </mxCell>
        <mxCell id="iaHt7cQPZfeRavD3wexz-89" value="&lt;span style=&quot;font-family: Helvetica; font-style: normal; font-variant-ligatures: normal; font-variant-caps: normal; font-weight: 400; letter-spacing: normal; orphans: 2; text-align: center; text-indent: 0px; text-transform: none; widows: 2; word-spacing: 0px; -webkit-text-stroke-width: 0px; white-space: normal; background-color: rgb(251, 251, 251); text-decoration-thickness: initial; text-decoration-style: initial; text-decoration-color: initial; float: none; display: inline !important;&quot;&gt;&lt;font style=&quot;font-size: 17px;&quot;&gt;...&lt;/font&gt;&lt;/span&gt;" style="text;html=1;align=center;verticalAlign=middle;whiteSpace=wrap;rounded=0;labelBorderColor=none;strokeColor=none;fontColor=default;" vertex="1" parent="iaHt7cQPZfeRavD3wexz-86">
          <mxGeometry y="59.99999999999999" width="200" height="30" as="geometry" />
        </mxCell>
        <mxCell id="iaHt7cQPZfeRavD3wexz-90" value="&lt;span style=&quot;font-size: 10px;&quot;&gt;ID: short&lt;/span&gt;" style="text;html=1;align=center;verticalAlign=middle;whiteSpace=wrap;rounded=0;" vertex="1" parent="iaHt7cQPZfeRavD3wexz-86">
          <mxGeometry x="120" y="30" width="80" height="30" as="geometry" />
        </mxCell>
        <mxCell id="iaHt7cQPZfeRavD3wexz-91" value="" style="endArrow=none;html=1;rounded=0;fixDash=0;snapToPoint=0;" edge="1" parent="iaHt7cQPZfeRavD3wexz-86">
          <mxGeometry width="50" height="50" relative="1" as="geometry">
            <mxPoint y="60" as="sourcePoint" />
            <mxPoint x="200" y="60" as="targetPoint" />
            <Array as="points">
              <mxPoint x="100" y="60" />
            </Array>
          </mxGeometry>
        </mxCell>
        <mxCell id="iaHt7cQPZfeRavD3wexz-98" value="Map&amp;lt;EntityID, Metadata&amp;gt;" style="swimlane;whiteSpace=wrap;html=1;startSize=30;" vertex="1" parent="1">
          <mxGeometry x="240" y="1040" width="200" height="90" as="geometry">
            <mxRectangle x="840" y="60" width="140" height="30" as="alternateBounds" />
          </mxGeometry>
        </mxCell>
        <mxCell id="iaHt7cQPZfeRavD3wexz-99" style="edgeStyle=orthogonalEdgeStyle;rounded=0;orthogonalLoop=1;jettySize=auto;html=1;" edge="1" parent="iaHt7cQPZfeRavD3wexz-98" source="iaHt7cQPZfeRavD3wexz-100" target="iaHt7cQPZfeRavD3wexz-102">
          <mxGeometry relative="1" as="geometry" />
        </mxCell>
        <mxCell id="iaHt7cQPZfeRavD3wexz-100" value="&lt;span style=&quot;color: rgb(0, 0, 0); font-family: Helvetica; font-size: 10px; font-style: normal; font-variant-ligatures: normal; font-variant-caps: normal; font-weight: 400; letter-spacing: normal; orphans: 2; text-align: center; text-indent: 0px; text-transform: none; widows: 2; word-spacing: 0px; -webkit-text-stroke-width: 0px; white-space: normal; background-color: rgb(251, 251, 251); text-decoration-thickness: initial; text-decoration-style: initial; text-decoration-color: initial; display: inline !important; float: none;&quot;&gt;ID: short&lt;/span&gt;" style="text;html=1;align=center;verticalAlign=middle;whiteSpace=wrap;rounded=0;" vertex="1" parent="iaHt7cQPZfeRavD3wexz-98">
          <mxGeometry y="30" width="60" height="30" as="geometry" />
        </mxCell>
        <mxCell id="iaHt7cQPZfeRavD3wexz-101" value="&lt;span style=&quot;font-family: Helvetica; font-style: normal; font-variant-ligatures: normal; font-variant-caps: normal; font-weight: 400; letter-spacing: normal; orphans: 2; text-align: center; text-indent: 0px; text-transform: none; widows: 2; word-spacing: 0px; -webkit-text-stroke-width: 0px; white-space: normal; background-color: rgb(251, 251, 251); text-decoration-thickness: initial; text-decoration-style: initial; text-decoration-color: initial; float: none; display: inline !important;&quot;&gt;&lt;font style=&quot;font-size: 17px;&quot;&gt;...&lt;/font&gt;&lt;/span&gt;" style="text;html=1;align=center;verticalAlign=middle;whiteSpace=wrap;rounded=0;labelBorderColor=none;strokeColor=none;fontColor=default;" vertex="1" parent="iaHt7cQPZfeRavD3wexz-98">
          <mxGeometry y="59.99999999999999" width="200" height="30" as="geometry" />
        </mxCell>
        <mxCell id="iaHt7cQPZfeRavD3wexz-102" value="&lt;span style=&quot;color: rgb(0, 0, 0); font-family: Helvetica; font-size: 10px; font-style: normal; font-variant-ligatures: normal; font-variant-caps: normal; font-weight: 400; letter-spacing: normal; orphans: 2; text-align: center; text-indent: 0px; text-transform: none; widows: 2; word-spacing: 0px; -webkit-text-stroke-width: 0px; white-space: normal; background-color: rgb(251, 251, 251); text-decoration-thickness: initial; text-decoration-style: initial; text-decoration-color: initial; display: inline !important; float: none;&quot;&gt;meta: Metadata&lt;/span&gt;" style="text;html=1;align=center;verticalAlign=middle;whiteSpace=wrap;rounded=0;" vertex="1" parent="iaHt7cQPZfeRavD3wexz-98">
          <mxGeometry x="120" y="30" width="80" height="30" as="geometry" />
        </mxCell>
        <mxCell id="iaHt7cQPZfeRavD3wexz-103" value="" style="endArrow=none;html=1;rounded=0;fixDash=0;snapToPoint=0;" edge="1" parent="iaHt7cQPZfeRavD3wexz-98">
          <mxGeometry width="50" height="50" relative="1" as="geometry">
            <mxPoint y="60" as="sourcePoint" />
            <mxPoint x="200" y="60" as="targetPoint" />
            <Array as="points">
              <mxPoint x="100" y="60" />
            </Array>
          </mxGeometry>
        </mxCell>
      </root>
    </mxGraphModel>
  </diagram>
</mxfile>
